/* XPM */
static char * pilot_enter_xpm[] = {
"32 31 340 2",
"  	c None",
". 	c #BD752D",
"+ 	c #C67420",
"@ 	c #C8741E",
"# 	c #C8751E",
"$ 	c #CA761F",
"% 	c #CC7822",
"& 	c #CE7A24",
"* 	c #CC7824",
"= 	c #CA7A26",
"- 	c #C87F29",
"; 	c #C6832B",
"> 	c #C3822A",
", 	c #C37E27",
"' 	c #C37722",
") 	c #C4701D",
"! 	c #CB7621",
"~ 	c #CD7A23",
"{ 	c #CB7720",
"] 	c #C9761F",
"^ 	c #CB7821",
"/ 	c #C87623",
"( 	c #B4681E",
"_ 	c #A56726",
": 	c #D28535",
"< 	c #EA9435",
"[ 	c #EC951E",
"} 	c #ED951A",
"| 	c #EC9418",
"1 	c #EC9419",
"2 	c #EC9519",
"3 	c #EE951A",
"4 	c #F18C18",
"5 	c #F38C19",
"6 	c #F2901C",
"7 	c #F1941E",
"8 	c #F39620",
"9 	c #F3941F",
"0 	c #F38F1B",
"a 	c #F38B19",
"b 	c #F09119",
"c 	c #ED9519",
"d 	c #EA9216",
"e 	c #E89115",
"f 	c #E99115",
"g 	c #EC9121",
"h 	c #F19638",
"i 	c #BD6B1E",
"j 	c #AC661C",
"k 	c #E48B29",
"l 	c #E4810C",
"m 	c #EB8B03",
"n 	c #EB8C01",
"o 	c #EA8B01",
"p 	c #EA8B00",
"q 	c #EA8A00",
"r 	c #F28903",
"s 	c #F38804",
"t 	c #F08804",
"u 	c #EF8704",
"v 	c #ED8602",
"w 	c #EE8602",
"x 	c #F18702",
"y 	c #ED8901",
"z 	c #EA8C00",
"A 	c #E98A00",
"B 	c #E88800",
"C 	c #F08A08",
"D 	c #E98010",
"E 	c #E6882D",
"F 	c #9B4D0C",
"G 	c #BD7221",
"H 	c #DB7F10",
"I 	c #F18907",
"J 	c #EA8300",
"K 	c #E88400",
"L 	c #EA8500",
"M 	c #EA8600",
"N 	c #E58500",
"O 	c #E48500",
"P 	c #E68400",
"Q 	c #E78300",
"R 	c #E98401",
"S 	c #E98502",
"T 	c #E78602",
"U 	c #E68702",
"V 	c #E98601",
"W 	c #E98400",
"X 	c #E98300",
"Y 	c #EF8300",
"Z 	c #EE8003",
"` 	c #E17F1B",
" .	c #A45113",
"..	c #BA7422",
"+.	c #D8800C",
"@.	c #ED8A02",
"#.	c #E98302",
"$.	c #E98203",
"%.	c #EA8305",
"&.	c #EB8405",
"*.	c #EA8405",
"=.	c #DF8706",
"-.	c #DD8707",
";.	c #E18507",
">.	c #E48307",
",.	c #E68508",
"'.	c #E48609",
").	c #E18809",
"!.	c #DF8909",
"~.	c #E68606",
"{.	c #EA8304",
"].	c #EC8300",
"^.	c #E98200",
"/.	c #DE8119",
"(.	c #A35314",
"_.	c #B67729",
":.	c #D08210",
"<.	c #E48B02",
"[.	c #E68401",
"}.	c #E78302",
"|.	c #E88403",
"1.	c #E98504",
"2.	c #E88504",
"3.	c #DF8704",
"4.	c #DF8605",
"5.	c #E48405",
"6.	c #E98105",
"7.	c #EC8206",
"8.	c #E98407",
"9.	c #E38707",
"0.	c #DF8907",
"a.	c #E48705",
"b.	c #E78402",
"c.	c #E78301",
"d.	c #E18401",
"e.	c #D8831E",
"f.	c #9E5719",
"g.	c #B4782D",
"h.	c #CC8213",
"i.	c #DE8B03",
"j.	c #E48600",
"k.	c #E78600",
"l.	c #E78700",
"m.	c #E38600",
"n.	c #E58401",
"o.	c #EA8201",
"p.	c #EF7F01",
"q.	c #F28002",
"r.	c #EF8203",
"s.	c #E98503",
"t.	c #E68700",
"u.	c #E68600",
"v.	c #E18500",
"w.	c #DB8403",
"x.	c #D5851E",
"y.	c #9E5819",
"z.	c #C67327",
"A.	c #DD800F",
"B.	c #E48A04",
"C.	c #E68301",
"D.	c #E88202",
"E.	c #E78202",
"F.	c #E98202",
"G.	c #E2800A",
"H.	c #E3830B",
"I.	c #E58706",
"J.	c #B25A0B",
"K.	c #C97126",
"L.	c #DF7F0E",
"M.	c #E68A03",
"N.	c #E27F0D",
"O.	c #E4830C",
"P.	c #B45A07",
"Q.	c #CB7327",
"R.	c #DD7E0D",
"S.	c #E68B03",
"T.	c #E48210",
"U.	c #E28106",
"V.	c #E28201",
"W.	c #B15705",
"X.	c #E4810F",
"Y.	c #E38106",
"Z.	c #E68503",
"`.	c #B75D09",
" +	c #CA7328",
".+	c #E88A03",
"++	c #C5792D",
"@+	c #D97B0C",
"#+	c #E78100",
"$+	c #E68000",
"%+	c #E78000",
"&+	c #E87F00",
"*+	c #E47F0E",
"=+	c #E7850A",
"-+	c #E48305",
";+	c #B25804",
">+	c #C4792D",
",+	c #DA7B0C",
"'+	c #E88100",
")+	c #E57F0E",
"!+	c #B15704",
"~+	c #C57A2E",
"{+	c #D97A0C",
"]+	c #E67E00",
"^+	c #E67D00",
"/+	c #E77E00",
"(+	c #E88211",
"_+	c #E48207",
":+	c #E08000",
"<+	c #AF5504",
"[+	c #E68110",
"}+	c #E07F00",
"|+	c #AF5605",
"1+	c #E5800F",
"2+	c #E18005",
"3+	c #E18001",
"4+	c #C47A2F",
"5+	c #D87B0C",
"6+	c #E58000",
"7+	c #E77F00",
"8+	c #E4800B",
"9+	c #DF7F04",
"0+	c #DF8003",
"a+	c #B05909",
"b+	c #B87425",
"c+	c #CF7D0B",
"d+	c #DA7E00",
"e+	c #E38100",
"f+	c #E48000",
"g+	c #E47F00",
"h+	c #E47E00",
"i+	c #E18301",
"j+	c #DA8305",
"k+	c #D4821D",
"l+	c #A85E1E",
"m+	c #BC7423",
"n+	c #D47D08",
"o+	c #E07E00",
"p+	c #E57E00",
"q+	c #E57D01",
"r+	c #E57D04",
"s+	c #E57C05",
"t+	c #E57D05",
"u+	c #DD8004",
"v+	c #D57F1E",
"w+	c #A75C1D",
"x+	c #C17422",
"y+	c #DD7C07",
"z+	c #E97B00",
"A+	c #E87C03",
"B+	c #E87B06",
"C+	c #E87B03",
"D+	c #E87B05",
"E+	c #E97D00",
"F+	c #E37C01",
"G+	c #D97C19",
"H+	c #A85A1A",
"I+	c #8D5624",
"J+	c #C27526",
"K+	c #E17A0A",
"L+	c #EF7B00",
"M+	c #E97C01",
"N+	c #E77C02",
"O+	c #E77D00",
"P+	c #E77C00",
"Q+	c #EB7B00",
"R+	c #E67802",
"S+	c #D9791B",
"T+	c #A65A1B",
"U+	c #B16C27",
"V+	c #E2811E",
"W+	c #E97A07",
"X+	c #DE7600",
"Y+	c #DD7800",
"Z+	c #DE7A00",
"`+	c #E07B00",
" @	c #E17C01",
".@	c #E27C02",
"+@	c #E27C01",
"@@	c #E27E00",
"#@	c #E37E00",
"$@	c #E27D00",
"%@	c #E57F01",
"&@	c #E97E04",
"*@	c #DD720A",
"=@	c #D87F2B",
"-@	c #98541E",
";@	c #A46C36",
">@	c #C97625",
",@	c #DB7613",
"'@	c #D97909",
")@	c #D87A08",
"!@	c #D97B09",
"~@	c #D97B0A",
"{@	c #D67806",
"]@	c #D57706",
"^@	c #D57705",
"/@	c #D67905",
"(@	c #D67904",
"_@	c #D57803",
":@	c #D47803",
"<@	c #D67808",
"[@	c #D77909",
"}@	c #D87A0A",
"|@	c #D6750B",
"1@	c #D6781F",
"2@	c #B56927",
"3@	c #9D591B",
"4@	c #BE671A",
"5@	c #C46A18",
"6@	c #C36A18",
"7@	c #C16916",
"8@	c #C16816",
"9@	c #C46C1A",
"0@	c #C56C1A",
"a@	c #C36A19",
"b@	c #C26A1A",
"c@	c #C16918",
"d@	c #C06818",
"e@	c #C2691C",
"f@	c #C3691F",
"g@	c #C46A1F",
"h@	c #C46A20",
"i@	c #C1691D",
"j@	c #AF611B",
"k@	c #8D430A",
"l@	c #8C3905",
"m@	c #8C3705",
"n@	c #8A3505",
"o@	c #893404",
"p@	c #893403",
"q@	c #883201",
"r@	c #873101",
"s@	c #893302",
"t@	c #893303",
"u@	c #852E03",
"v@	c #832C02",
"w@	c #883006",
"x@	c #8B3308",
"y@	c #8A3907",
"      . + @ @ @ # $ % & * = - ; > , ' ) ! ~ { ] $ { ^ ^ / (     ",
"  _ : < [ } } } | 1 2 3 4 5 6 7 8 9 0 a b c 2 | d e e f g h i   ",
"  j k l m n n n n o p q r s t u v w x s y p p z A B B B C D E F ",
"  G H I J K K K L M M M N O P Q R S T U V M M M W K K X Y Z `  .",
"  ..+.@.#.$.$.$.%.&.&.*.=.-.;.>.,.'.).!.~.&.&.&.{.$.$.$.].^./.(.",
"  _.:.<.[.}.}.}.|.1.1.2.3.4.5.6.7.8.9.0.a.1.1.1.b.}.}.c.P d.e.f.",
"  g.h.i.j.N N N k.l.l.l.m.n.o.p.q.r.s.U t.l.l.l.u.N N N v.w.x.y.",
"  z.A.B.C.D.D.D.D.D.D.D.E.D.D.F.F.F.D.E.E.D.D.D.D.D.D.E.G.H.I.J.",
"  K.L.M.C.D.D.D.D.D.D.D.D.D.D.D.D.D.D.D.D.D.D.D.D.D.D.D.N.O.T P.",
"  K.L.M.C.D.D.D.D.D.D.D.D.D.D.D.D.D.D.D.D.D.D.D.D.D.D.D.N.O.T P.",
"  K.L.M.C.D.D.D.D.D.D.D.D.D.D.D.D.D.D.D.D.D.D.D.D.D.D.D.N.O.T P.",
"  Q.R.S.C.D.D.D.D.D.D.D.D.D.D.D.D.D.D.D.D.D.D.D.D.D.D.D.T.U.V.W.",
"  Q.R.S.C.D.D.D.D.D.D.D.D.D.D.D.D.D.D.D.D.D.D.D.D.D.D.D.X.Y.Z.`.",
"  Q.R.S.C.D.D.D.D.D.D.D.D.D.D.D.D.D.D.D.D.D.D.D.D.D.D.D.X.Y.Z.`.",
"   +R..+c.D.D.D.D.D.D.D.D.D.D.D.D.D.D.D.D.D.D.D.D.D.D.D.T.U.V.W.",
"  ++@+#+$+$+$+$+$+$+$+$+%+&+&+&+&+&+&+&+&+&+&+&+&+&+&+&+*+=+-+;+",
"  >+,+'+%+$+$+$+$+$+$+$+&+&+&+&+&+&+&+&+&+&+&+&+&+&+&+&+)+=+-+;+",
"  >+,+'+%+$+$+$+$+$+$+$+&+&+&+&+&+&+&+&+&+&+&+&+&+&+&+&+)+=+-+!+",
"  >+,+'+%+$+$+$+$+$+$+$+&+&+&+&+&+&+&+&+&+&+&+&+&+&+&+&+)+=+-+!+",
"  ~+{+$+$+$+$+$+$+$+$+$+]+^+^+^+/+&+&+&+&+&+&+&+&+&+&+&+(+_+:+<+",
"  ~+{+$+$+$+$+$+$+$+$+$+]+^+^+^+/+&+&+&+&+&+&+&+&+&+&+&+[+Y.}+|+",
"  ~+{+$+$+$+$+$+$+$+$+$+]+^+^+^+/+&+&+&+&+&+&+&+&+&+&+&+1+2+3+W.",
"  4+5+6+$+$+$+$+$+$+$+$+]+^+^+^+7+&+&+&+&+&+&+&+&+&+&+&+8+9+0+a+",
"  b+c+d+e+f+f+f+f+f+f+f+g+g+g+g+g+g+g+g+h+h+h+h+h+h+h+h+i+j+k+l+",
"  m+n+o+p+p+p+p+p+p+p+p+q+q+q+q+q+q+q+q+r+s+s+s+s+s+s+t+f+u+v+w+",
"  x+y+z+A+B+B+B+B+B+B+B+C+C+C+C+C+C+C+C+D+B+B+B+B+B+B+B+E+F+G+H+",
"I+J+K+L+M+N+N+N+N+N+N+N+O+/+/+/+/+/+/+O+O+P+P+P+P+P+P+P+Q+R+S+T+",
"  U+V+W+X+Y+Z+`+ @.@.@+@@@@@@@@@f+f+f+f+#@$@$@$@g+f+f+%@&@*@=@-@",
"  ;@>@,@'@)@!@~@{@]@]@^@/@(@(@(@_@:@:@:@{@<@<@<@[@}@}@}@|@1@2@  ",
"    3@4@5@6@7@8@9@0@0@0@a@b@b@b@c@d@d@d@e@f@f@f@g@h@h@h@i@j@    ",
"      k@l@m@n@o@o@o@p@o@q@r@q@q@s@s@s@t@u@v@v@v@w@x@x@x@y@      "};
