/* XPM */
static char * pilot_right_xpm[] = {
"27 31 266 2",
"  	c None",
". 	c #2B2F29",
"+ 	c #2C332C",
"@ 	c #40423D",
"# 	c #828681",
"$ 	c #A2A9A2",
"% 	c #949E96",
"& 	c #616B63",
"* 	c #323D35",
"= 	c #323530",
"- 	c #8A8E88",
"; 	c #B9BEB8",
"> 	c #BBC1BB",
", 	c #C1C8C1",
"' 	c #B3BBB3",
") 	c #858B85",
"! 	c #4B504A",
"~ 	c #4F564F",
"{ 	c #9EA59E",
"] 	c #AFB4AE",
"^ 	c #B5BAB4",
"/ 	c #B6BCB6",
"( 	c #B8BCB6",
"_ 	c #B9BCB7",
": 	c #A7AEA7",
"< 	c #737A73",
"[ 	c #3E453E",
"} 	c #5E6860",
"| 	c #9AA49C",
"1 	c #ABB2AB",
"2 	c #ADB2AC",
"3 	c #B0B2AD",
"4 	c #B3B4AF",
"5 	c #B4B5B0",
"6 	c #AEB7AF",
"7 	c #B1BBB3",
"8 	c #959F97",
"9 	c #5A645C",
"0 	c #626F66",
"a 	c #97A29A",
"b 	c #A8AFA8",
"c 	c #A8ABA6",
"d 	c #ABACA7",
"e 	c #AEACA8",
"f 	c #AFADA9",
"g 	c #ADB6AF",
"h 	c #B0BBB3",
"i 	c #AEB9B1",
"j 	c #AFB9B1",
"k 	c #869189",
"l 	c #4C574F",
"m 	c #57655C",
"n 	c #A7A9A4",
"o 	c #AAAAA6",
"p 	c #AEAAA7",
"q 	c #A0ABA3",
"r 	c #A8B4AB",
"s 	c #ABB7AE",
"t 	c #B2BEB6",
"u 	c #A6B2A9",
"v 	c #707B73",
"w 	c #3F4A41",
"x 	c #59645C",
"y 	c #99A49C",
"z 	c #A3AAA3",
"A 	c #A4A8A2",
"B 	c #A6A7A2",
"C 	c #A8A6A3",
"D 	c #A8A7A3",
"E 	c #A5A8A2",
"F 	c #A7AAA5",
"G 	c #ABAEA8",
"H 	c #ACAFA9",
"I 	c #B2B6B0",
"J 	c #B3B6B1",
"K 	c #9EA19C",
"L 	c #60645E",
"M 	c #A2AAA2",
"N 	c #A3A8A2",
"O 	c #A7A6A2",
"P 	c #A8A9A4",
"Q 	c #AAABA6",
"R 	c #ACADA8",
"S 	c #B0B1AC",
"T 	c #B5B7B2",
"U 	c #B5B8B3",
"V 	c #8C918B",
"W 	c #484D47",
"X 	c #A7A8A3",
"Y 	c #A9AAA5",
"Z 	c #AEB0AB",
"` 	c #B8BBB6",
" .	c #B7BCB6",
"..	c #A9AEA8",
"+.	c #6C716B",
"@.	c #414640",
"#.	c #58635B",
"$.	c #A4A5A0",
"%.	c #B1B5AF",
"&.	c #ACB1AB",
"*.	c #B6BBB5",
"=.	c #B1B6B0",
"-.	c #939892",
";.	c #7F847E",
">.	c #5D6860",
",.	c #9BA59D",
"'.	c #A4ABA4",
").	c #A1A6A0",
"!.	c #A5A4A0",
"~.	c #A5A6A1",
"{.	c #A9ACA7",
"].	c #ABB0AA",
"^.	c #B0B5AF",
"/.	c #BABFB9",
"(.	c #B3B8B2",
"_.	c #8B908A",
":.	c #535852",
"<.	c #5E6961",
"[.	c #A4ACA4",
"}.	c #A4A6A1",
"|.	c #A8ADA7",
"1.	c #AAAFA9",
"2.	c #737872",
"3.	c #A3A5A0",
"4.	c #A6A9A4",
"5.	c #A6ABA5",
"6.	c #A7ACA6",
"7.	c #BBC0BA",
"8.	c #969B95",
"9.	c #5D6861",
"0.	c #A5ACA5",
"a.	c #A2A39E",
"b.	c #A5A8A3",
"c.	c #A4A9A3",
"d.	c #A5AAA4",
"e.	c #AEB3AD",
"f.	c #B4B9B3",
"g.	c #848984",
"h.	c #363B35",
"i.	c #5D6764",
"j.	c #9BA4A0",
"k.	c #A3AAA4",
"l.	c #A1A69F",
"m.	c #A4A59E",
"n.	c #A5A59D",
"o.	c #A5A59C",
"p.	c #A2A6A0",
"q.	c #A2A5A0",
"r.	c #A2A59F",
"s.	c #A4A69F",
"t.	c #A4A69E",
"u.	c #A7A9A2",
"v.	c #AAACA5",
"w.	c #ABADA6",
"x.	c #ACAEA7",
"y.	c #AAAFAB",
"z.	c #AAAEAC",
"A.	c #9FA4A1",
"B.	c #3E4341",
"C.	c #5C6665",
"D.	c #A4A59D",
"E.	c #A5A59B",
"F.	c #A4A69A",
"G.	c #A6A79F",
"H.	c #A7A8A0",
"I.	c #A8A9A1",
"J.	c #A8AAA3",
"K.	c #A5A8A6",
"L.	c #A9ADAC",
"M.	c #898D8C",
"N.	c #4A4E4D",
"O.	c #A3A49C",
"P.	c #A2A49C",
"Q.	c #A8ABA9",
"R.	c #959998",
"S.	c #6A6E6D",
"T.	c #A1A29A",
"U.	c #A0A199",
"V.	c #9E9F97",
"W.	c #9C9E97",
"X.	c #898C8A",
"Y.	c #676B6A",
"Z.	c #A3A9A4",
"`.	c #A5A69A",
" +	c #A1A59E",
".+	c #A0A59F",
"++	c #A0A59E",
"@+	c #A0A19A",
"#+	c #9FA098",
"$+	c #91928A",
"%+	c #75776F",
"&+	c #A0A49D",
"*+	c #9FA49E",
"=+	c #9FA49D",
"-+	c #A9AAA3",
";+	c #A5A69E",
">+	c #9A9B93",
",+	c #92938B",
"'+	c #777870",
")+	c #5B5C54",
"!+	c #A0A49E",
"~+	c #9E9F98",
"{+	c #9C9D95",
"]+	c #84857D",
"^+	c #61625A",
"/+	c #9C9D96",
"(+	c #86877F",
"_+	c #6A6B63",
":+	c #6A7473",
"<+	c #9EA7A3",
"[+	c #A1A8A2",
"}+	c #A4A49A",
"|+	c #A4A499",
"1+	c #9EA19B",
"2+	c #A1A39E",
"3+	c #A2A49F",
"4+	c #9D9F9A",
"5+	c #9FA19C",
"6+	c #9B9D98",
"7+	c #939590",
"8+	c #6D6E6A",
"9+	c #9DA6A2",
"0+	c #A0A7A1",
"a+	c #A2A39B",
"b+	c #A3A399",
"c+	c #A3A398",
"d+	c #9E9F9A",
"e+	c #9FA09B",
"f+	c #A1A29D",
"g+	c #92938E",
"h+	c #767772",
"i+	c #5F605B",
"j+	c #5E6867",
"k+	c #A0A7A2",
"l+	c #9E9F99",
"m+	c #949590",
"n+	c #83847F",
"o+	c #5D5E59",
"p+	c #586261",
"q+	c #9AA39F",
"r+	c #A0A6A1",
"s+	c #A3A49E",
"t+	c #9B9C97",
"u+	c #82837E",
"v+	c #6A6B66",
"w+	c #56605F",
"x+	c #949D99",
"y+	c #9FA6A0",
"z+	c #9D9D93",
"A+	c #9B9B90",
"B+	c #92938D",
"C+	c #545550",
"D+	c #4A5453",
"E+	c #89928E",
"F+	c #959C96",
"G+	c #979C95",
"H+	c #9F9F95",
"I+	c #848479",
"J+	c #565752",
"K+	c #4E5753",
"L+	c #848A85",
"M+	c #939891",
"N+	c #7F8078",
"O+	c #65655B",
"P+	c #373D37",
"Q+	c #424740",
"    . +                                               ",
"  @ # $ % & *                                         ",
"= - ; > , ' ) !                                       ",
"~ { ] ^ / ( _ : < [                                   ",
"} | 1 2 3 4 5 6 7 8 9                                 ",
"0 a b c d e f g h i j k l                             ",
"m a b n o p e q r s s t u v w                         ",
"x y z A B C D E F G H I _ J K L                       ",
"x | M N B O O B P Q R Q S 5 T U V W                   ",
"x | M N B O O B X P Y R Q d Z `  ...+.@.              ",
"#.| z N B O O X B B B $.X d R %.&.*.=.-.;.            ",
">.,.'.).$.!.!.~.$.$.$.B B X B {.].].^./.(._.:.        ",
"<.,.[.).$.!.!.$.$.$.$.~.~.~.}.F |.1.&.(.^  .).2.      ",
"<.,.[.).$.!.!.$.$.$.$.$.$.$.3.4.5.6.6.&.|.=.7.=.8.@.  ",
"9.,.0.).$.!.!.$.$.$.$.a.a.a.a.b.c.A N d.1.e.(.f.^.g.h.",
"i.j.k.l.m.n.o.p.p.p.p.q.q.q.r.s.s.t.t.u.v.w.x.y.z.A.B.",
"C.j.k.l.D.E.F.p.).).).).).).).m.D.D.D.G.H.I.J.K.L.M.N.",
"C.j.k.l.D.E.F.p.).).).).).).).m.D.D.D.O.O.O.P.Q.R.S.  ",
"C.j.k.l.D.E.F.p.).).).).).).).m.D.D.D.T.U.V.W.X.Y.    ",
"C.j.Z.l.D.E.`. +.+.+.+.+.+.+++@+H.D.I.T.#+$+%+        ",
"C.j.k.l.D.E.F.&+*+*+*+*+*+*+=+-+;+T.>+,+'+)+          ",
"C.j.Z.l.D.E.F.!+*+*+*+*+*+*+*+~+V.{+]+^+              ",
"C.j.k.l.D.E.`.!+*+*+*+*+*+*+*+/+(+_+                  ",
":+<+[+++O.}+|+1+2+3+2+4+5+6+7+8+                      ",
":+9+0+=+a+b+c+d+a.a.e+f+g+h+i+                        ",
"j+j.k+=+a+b+c+l+a.d+m+n+o+                            ",
"p+q+r+=+a+b+c+s+t+u+v+                                ",
"w+x+y+=+;+z+A+B+v+C+                                  ",
"D+E+F+G+U.H+I+J+                                      ",
"  K+L+M+N+O+                                          ",
"    P+Q+                                              "};
