/* XPM */
static char * pilot_left_xpm[] = {
"27 31 266 2",
"  	c None",
". 	c #2C332C",
"+ 	c #2B2F29",
"@ 	c #323D35",
"# 	c #616B63",
"$ 	c #949E96",
"% 	c #A2A9A2",
"& 	c #828681",
"* 	c #40423D",
"= 	c #4B504A",
"- 	c #858B85",
"; 	c #B3BBB3",
"> 	c #C1C8C1",
", 	c #BBC1BB",
"' 	c #B9BEB8",
") 	c #8A8E88",
"! 	c #323530",
"~ 	c #3E453E",
"{ 	c #737A73",
"] 	c #A7AEA7",
"^ 	c #B9BCB7",
"/ 	c #B8BCB6",
"( 	c #B6BCB6",
"_ 	c #B5BAB4",
": 	c #AFB4AE",
"< 	c #9EA59E",
"[ 	c #4F564F",
"} 	c #5A645C",
"| 	c #959F97",
"1 	c #B1BBB3",
"2 	c #AEB7AF",
"3 	c #B4B5B0",
"4 	c #B3B4AF",
"5 	c #B0B2AD",
"6 	c #ADB2AC",
"7 	c #ABB2AB",
"8 	c #9AA49C",
"9 	c #5E6860",
"0 	c #4C574F",
"a 	c #869189",
"b 	c #AFB9B1",
"c 	c #AEB9B1",
"d 	c #B0BBB3",
"e 	c #ADB6AF",
"f 	c #AFADA9",
"g 	c #AEACA8",
"h 	c #ABACA7",
"i 	c #A8ABA6",
"j 	c #A8AFA8",
"k 	c #97A29A",
"l 	c #626F66",
"m 	c #3F4A41",
"n 	c #707B73",
"o 	c #A6B2A9",
"p 	c #B2BEB6",
"q 	c #ABB7AE",
"r 	c #A8B4AB",
"s 	c #A0ABA3",
"t 	c #AEAAA7",
"u 	c #AAAAA6",
"v 	c #A7A9A4",
"w 	c #57655C",
"x 	c #60645E",
"y 	c #9EA19C",
"z 	c #B3B6B1",
"A 	c #B2B6B0",
"B 	c #ACAFA9",
"C 	c #ABAEA8",
"D 	c #A7AAA5",
"E 	c #A5A8A2",
"F 	c #A8A7A3",
"G 	c #A8A6A3",
"H 	c #A6A7A2",
"I 	c #A4A8A2",
"J 	c #A3AAA3",
"K 	c #99A49C",
"L 	c #59645C",
"M 	c #484D47",
"N 	c #8C918B",
"O 	c #B5B8B3",
"P 	c #B5B7B2",
"Q 	c #B0B1AC",
"R 	c #AAABA6",
"S 	c #ACADA8",
"T 	c #A8A9A4",
"U 	c #A7A6A2",
"V 	c #A3A8A2",
"W 	c #A2AAA2",
"X 	c #414640",
"Y 	c #6C716B",
"Z 	c #A9AEA8",
"` 	c #B7BCB6",
" .	c #B8BBB6",
"..	c #AEB0AB",
"+.	c #A9AAA5",
"@.	c #A7A8A3",
"#.	c #7F847E",
"$.	c #939892",
"%.	c #B1B6B0",
"&.	c #B6BBB5",
"*.	c #ACB1AB",
"=.	c #B1B5AF",
"-.	c #A4A5A0",
";.	c #58635B",
">.	c #535852",
",.	c #8B908A",
"'.	c #B3B8B2",
").	c #BABFB9",
"!.	c #B0B5AF",
"~.	c #ABB0AA",
"{.	c #A9ACA7",
"].	c #A5A6A1",
"^.	c #A5A4A0",
"/.	c #A1A6A0",
"(.	c #A4ABA4",
"_.	c #9BA59D",
":.	c #5D6860",
"<.	c #737872",
"[.	c #AAAFA9",
"}.	c #A8ADA7",
"|.	c #A4A6A1",
"1.	c #A4ACA4",
"2.	c #5E6961",
"3.	c #969B95",
"4.	c #BBC0BA",
"5.	c #A7ACA6",
"6.	c #A6ABA5",
"7.	c #A6A9A4",
"8.	c #A3A5A0",
"9.	c #363B35",
"0.	c #848984",
"a.	c #B4B9B3",
"b.	c #AEB3AD",
"c.	c #A5AAA4",
"d.	c #A4A9A3",
"e.	c #A5A8A3",
"f.	c #A2A39E",
"g.	c #A5ACA5",
"h.	c #5D6861",
"i.	c #3E4341",
"j.	c #9FA4A1",
"k.	c #AAAEAC",
"l.	c #AAAFAB",
"m.	c #ACAEA7",
"n.	c #ABADA6",
"o.	c #AAACA5",
"p.	c #A7A9A2",
"q.	c #A4A69E",
"r.	c #A4A69F",
"s.	c #A2A59F",
"t.	c #A2A5A0",
"u.	c #A2A6A0",
"v.	c #A5A59C",
"w.	c #A5A59D",
"x.	c #A4A59E",
"y.	c #A1A69F",
"z.	c #A3AAA4",
"A.	c #9BA4A0",
"B.	c #5D6764",
"C.	c #4A4E4D",
"D.	c #898D8C",
"E.	c #A9ADAC",
"F.	c #A5A8A6",
"G.	c #A8AAA3",
"H.	c #A8A9A1",
"I.	c #A7A8A0",
"J.	c #A6A79F",
"K.	c #A4A59D",
"L.	c #A4A69A",
"M.	c #A5A59B",
"N.	c #5C6665",
"O.	c #6A6E6D",
"P.	c #959998",
"Q.	c #A8ABA9",
"R.	c #A2A49C",
"S.	c #A3A49C",
"T.	c #676B6A",
"U.	c #898C8A",
"V.	c #9C9E97",
"W.	c #9E9F97",
"X.	c #A0A199",
"Y.	c #A1A29A",
"Z.	c #75776F",
"`.	c #91928A",
" +	c #9FA098",
".+	c #A0A19A",
"++	c #A0A59E",
"@+	c #A0A59F",
"#+	c #A1A59E",
"$+	c #A5A69A",
"%+	c #A3A9A4",
"&+	c #5B5C54",
"*+	c #777870",
"=+	c #92938B",
"-+	c #9A9B93",
";+	c #A5A69E",
">+	c #A9AAA3",
",+	c #9FA49D",
"'+	c #9FA49E",
")+	c #A0A49D",
"!+	c #61625A",
"~+	c #84857D",
"{+	c #9C9D95",
"]+	c #9E9F98",
"^+	c #A0A49E",
"/+	c #6A6B63",
"(+	c #86877F",
"_+	c #9C9D96",
":+	c #6D6E6A",
"<+	c #939590",
"[+	c #9B9D98",
"}+	c #9FA19C",
"|+	c #9D9F9A",
"1+	c #A1A39E",
"2+	c #A2A49F",
"3+	c #9EA19B",
"4+	c #A4A499",
"5+	c #A4A49A",
"6+	c #A1A8A2",
"7+	c #9EA7A3",
"8+	c #6A7473",
"9+	c #5F605B",
"0+	c #767772",
"a+	c #92938E",
"b+	c #A1A29D",
"c+	c #9FA09B",
"d+	c #9E9F9A",
"e+	c #A3A398",
"f+	c #A3A399",
"g+	c #A2A39B",
"h+	c #A0A7A1",
"i+	c #9DA6A2",
"j+	c #5D5E59",
"k+	c #83847F",
"l+	c #949590",
"m+	c #9E9F99",
"n+	c #A0A7A2",
"o+	c #5E6867",
"p+	c #6A6B66",
"q+	c #82837E",
"r+	c #9B9C97",
"s+	c #A3A49E",
"t+	c #A0A6A1",
"u+	c #9AA39F",
"v+	c #586261",
"w+	c #545550",
"x+	c #92938D",
"y+	c #9B9B90",
"z+	c #9D9D93",
"A+	c #9FA6A0",
"B+	c #949D99",
"C+	c #56605F",
"D+	c #565752",
"E+	c #848479",
"F+	c #9F9F95",
"G+	c #979C95",
"H+	c #959C96",
"I+	c #89928E",
"J+	c #4A5453",
"K+	c #65655B",
"L+	c #7F8078",
"M+	c #939891",
"N+	c #848A85",
"O+	c #4E5753",
"P+	c #424740",
"Q+	c #373D37",
"                                              . +     ",
"                                        @ # $ % & *   ",
"                                      = - ; > , ' ) ! ",
"                                  ~ { ] ^ / ( _ : < [ ",
"                                } | 1 2 3 4 5 6 7 8 9 ",
"                            0 a b c d e f g h i j k l ",
"                        m n o p q q r s g t u v j k w ",
"                      x y z ^ A B C D E F G H I J K L ",
"                  M N O P 3 Q R S R T H U U H V W 8 L ",
"              X Y Z `  ...h R S +.T @.H U U H V W 8 L ",
"            #.$.%.&.*.=.S h @.-.H H H @.U U H V J 8 ;.",
"        >.,.'.).!.~.~.{.H @.H H -.-.-.].^.^.-./.(._.:.",
"      <./.` _ '.*.[.}.D |.].].].-.-.-.-.^.^.-./.1._.2.",
"  X 3.%.4.%.}.*.5.5.6.7.8.-.-.-.-.-.-.-.^.^.-./.1._.2.",
"9.0.!.a.'.b.[.c.V I d.e.f.f.f.f.-.-.-.-.^.^.-./.g._.h.",
"i.j.k.l.m.n.o.p.q.q.r.r.s.t.t.t.u.u.u.u.v.w.x.y.z.A.B.",
"C.D.E.F.G.H.I.J.K.K.K.x./././././././.u.L.M.K.y.z.A.N.",
"  O.P.Q.R.S.S.S.K.K.K.x./././././././.u.L.M.K.y.z.A.N.",
"    T.U.V.W.X.Y.K.K.K.x./././././././.u.L.M.K.y.z.A.N.",
"        Z.`. +Y.H.K.I..+++@+@+@+@+@+@+#+$+M.K.y.%+A.N.",
"          &+*+=+-+Y.;+>+,+'+'+'+'+'+'+)+L.M.K.y.z.A.N.",
"              !+~+{+W.]+'+'+'+'+'+'+'+^+L.M.K.y.%+A.N.",
"                  /+(+_+'+'+'+'+'+'+'+^+$+M.K.y.z.A.N.",
"                      :+<+[+}+|+1+2+1+3+4+5+S.++6+7+8+",
"                        9+0+a+b+c+f.f.d+e+f+g+,+h+i+8+",
"                            j+k+l+d+f.m+e+f+g+,+n+A.o+",
"                                p+q+r+s+e+f+g+,+t+u+v+",
"                                  w+p+x+y+z+;+,+A+B+C+",
"                                      D+E+F+X.G+H+I+J+",
"                                          K+L+M+N+O+  ",
"                                              P+Q+    "};
