/* XPM */
static char * pilot_exit_xpm[] = {
"31 20 259 2",
"  	c None",
". 	c #353938",
"+ 	c #373B3A",
"@ 	c #343837",
"# 	c #3B3F3E",
"$ 	c #363B36",
"% 	c #30362D",
"& 	c #2F352C",
"* 	c #2E342B",
"= 	c #2F342B",
"- 	c #2E332E",
"; 	c #2E3231",
"> 	c #333736",
", 	c #323635",
"' 	c #2B2F2E",
") 	c #252D2B",
"! 	c #1C2826",
"~ 	c #424645",
"{ 	c #6E7271",
"] 	c #828685",
"^ 	c #818584",
"/ 	c #7F8382",
"( 	c #7E8281",
"_ 	c #808482",
": 	c #858A84",
"< 	c #888E83",
"[ 	c #868C82",
"} 	c #858B81",
"| 	c #858B80",
"1 	c #828881",
"2 	c #808483",
"3 	c #848887",
"4 	c #868A89",
"5 	c #818987",
"6 	c #6A7574",
"7 	c #343E3C",
"8 	c #474B4A",
"9 	c #6B6F6E",
"0 	c #7B7F7E",
"a 	c #737776",
"b 	c #757978",
"c 	c #747877",
"d 	c #737871",
"e 	c #71776A",
"f 	c #707669",
"g 	c #6E7468",
"h 	c #6D7366",
"i 	c #6C7265",
"j 	c #70756E",
"k 	c #777B7A",
"l 	c #7D8180",
"m 	c #757D7B",
"n 	c #848F8E",
"o 	c #697371",
"p 	c #323B36",
"q 	c #4D5150",
"r 	c #6C706F",
"s 	c #5F6362",
"t 	c #707372",
"u 	c #696A6A",
"v 	c #676968",
"w 	c #656968",
"x 	c #646967",
"y 	c #636866",
"z 	c #626966",
"A 	c #616966",
"B 	c #646B66",
"C 	c #666C63",
"D 	c #656A61",
"E 	c #646A61",
"F 	c #646961",
"G 	c #616662",
"H 	c #616564",
"I 	c #646867",
"J 	c #666A69",
"K 	c #676B6A",
"L 	c #686F6D",
"M 	c #656D6B",
"N 	c #6B7270",
"O 	c #383D3B",
"P 	c #636766",
"Q 	c #656665",
"R 	c #626061",
"S 	c #605F60",
"T 	c #606261",
"U 	c #5E6362",
"V 	c #5C6461",
"W 	c #5B6561",
"X 	c #5A6561",
"Y 	c #5D6562",
"Z 	c #5F6361",
"` 	c #5D6160",
" .	c #5E6260",
"..	c #5E6261",
"+.	c #606463",
"@.	c #6A6E6D",
"#.	c #626665",
"$.	c #3D4140",
"%.	c #4B4F4E",
"&.	c #636463",
"*.	c #5F5D5E",
"=.	c #5D5C5D",
"-.	c #5D5F5E",
";.	c #5C615F",
">.	c #59615E",
",.	c #58625E",
"'.	c #57625E",
").	c #5B6360",
"!.	c #5C605F",
"~.	c #5B5F5E",
"{.	c #5A5E5D",
"].	c #585C5B",
"^.	c #4A4E4D",
"/.	c #616261",
"(.	c #5C5A5B",
"_.	c #5A595A",
":.	c #5A5C5B",
"<.	c #595E5C",
"[.	c #565E5B",
"}.	c #555F5B",
"|.	c #545F5B",
"1.	c #58615E",
"2.	c #575B5A",
"3.	c #555958",
"4.	c #494D4C",
"5.	c #5E5F5F",
"6.	c #5A5859",
"7.	c #585758",
"8.	c #585A59",
"9.	c #575C5A",
"0.	c #545C59",
"a.	c #535D59",
"b.	c #525D59",
"c.	c #565F5C",
"d.	c #595D5C",
"e.	c #565A59",
"f.	c #484C4B",
"g.	c #5C5D5C",
"h.	c #595758",
"i.	c #565656",
"j.	c #575958",
"k.	c #535A58",
"l.	c #525C58",
"m.	c #505C58",
"n.	c #535C59",
"o.	c #545856",
"p.	c #565A5A",
"q.	c #5F6261",
"r.	c #5C6060",
"s.	c #535B58",
"t.	c #545857",
"u.	c #5C5D5D",
"v.	c #565B59",
"w.	c #525B58",
"x.	c #565B5A",
"y.	c #5E6262",
"z.	c #5D6060",
"A.	c #5B5D5C",
"B.	c #585858",
"C.	c #565657",
"D.	c #565958",
"E.	c #555A59",
"F.	c #545A58",
"G.	c #515B58",
"H.	c #525957",
"I.	c #525656",
"J.	c #535756",
"K.	c #535757",
"L.	c #5C6260",
"M.	c #5A5F5D",
"N.	c #373C3A",
"O.	c #585B5B",
"P.	c #55595A",
"Q.	c #545859",
"R.	c #535758",
"S.	c #515556",
"T.	c #4F5354",
"U.	c #505455",
"V.	c #545A59",
"W.	c #575F5D",
"X.	c #39413E",
"Y.	c #525655",
"Z.	c #555959",
"`.	c #535958",
" +	c #3A4340",
".+	c #545957",
"++	c #525754",
"@+	c #535755",
"#+	c #515553",
"$+	c #4F5351",
"%+	c #505452",
"&+	c #525654",
"*+	c #525856",
"=+	c #555E5B",
"-+	c #545D5A",
";+	c #38413E",
">+	c #555A56",
",+	c #515650",
"'+	c #525751",
")+	c #535852",
"!+	c #4F544E",
"~+	c #50554F",
"{+	c #515651",
"]+	c #545954",
"^+	c #565D58",
"/+	c #555A55",
"(+	c #545951",
"_+	c #525750",
":+	c #535851",
"<+	c #4F544D",
"[+	c #51564F",
"}+	c #50554E",
"|+	c #51574F",
"1+	c #545952",
"2+	c #555A53",
"3+	c #565B54",
"4+	c #5F6660",
"5+	c #515A57",
"6+	c #6D7673",
"7+	c #424B48",
"8+	c #595E58",
"9+	c #53594F",
"0+	c #50564C",
"a+	c #51574D",
"b+	c #545A4F",
"c+	c #555B51",
"d+	c #545A50",
"e+	c #52584E",
"f+	c #565C52",
"g+	c #575D53",
"h+	c #585E54",
"i+	c #575E58",
"j+	c #59625F",
"k+	c #636C69",
"l+	c #575C55",
"m+	c #565C50",
"n+	c #555B4F",
"o+	c #595F53",
"p+	c #575D51",
"q+	c #53594D",
"r+	c #52584C",
"s+	c #51574B",
"t+	c #50564A",
"u+	c #4F5549",
"v+	c #545A4E",
"w+	c #4E554D",
"x+	c #57605D",
"y+	c #494E47",
"z+	c #414739",
"A+	c #3B4133",
"B+	c #393F31",
"C+	c #3A4032",
"D+	c #3D4335",
"E+	c #404638",
"F+	c #3E4436",
"G+	c #3F4537",
"H+	c #43493B",
"I+	c #444A3C",
"J+	c #414840",
"      . + . @ + # # # $ % & * = = * * - ; ; ; > , ' ' ) !     ",
"  ~ { ] ^ / ( _ ^ ^ ^ : < [ } | | | | 1 2 2 2 3 4 ] ^ 5 6 7   ",
"8 9 0 a b c a a a a a d e f g h i i i j a a a b k 0 l m n o p ",
"q r s t u v w x y z A B C D D E F F F G s s s H I J K L M N O ",
"q s P Q R S T U V W X Y Z ` Z s  . . ...........s +.H s @.#.$.",
"%...H &.*.=.-.;.>.,.'.).` !.` ..` ` ` !.~.~.~.{.].{.~.{.K s # ",
"^.!.+./.(._.:.<.[.}.|.1.!.{.!.` ` ` ` ~.].].].2.3.2.].].I ` + ",
"4.{.` 5.6.7.8.9.0.a.b.c.{.d.{.{.d.d.d.].2.2.2.e.3.e.].2.H !.+ ",
"f.d.].g.h.i.j.e.k.l.m.n.2.2.2.2.2.2.2.2.2.2.2.3.o.3.p.2.q.r.+ ",
"f.d.].g.h.i.j.e.k.l.m.s.3.3.3.3.3.3.3.3.3.3.3.t.o.3.p.2.U r.+ ",
"f.d.].u.h.i.j.v.s.l.m.w.t.t.t.t.t.t.t.t.t.t.t.t.o.3.x.2.y.z.+ ",
"f.d.].A.B.C.D.E.F.w.G.H.I.I.I.J.J.J.J.J.I.I.I.I.K.3.p.x.L.M.N.",
"^.2.3.O.P.P.P.Q.R.R.R.S.T.T.T.S.R.R.R.S.T.T.T.U.I.R.P.V.W.n.X.",
"4.3.Y.Z.R.R.R.R.R.R.R.S.T.T.T.S.R.R.R.S.T.T.T.U.I.R.Q.`.1.1. +",
"q 2.J..+++++++@+@+@+@+#+$+$+$+#+@+@+@+#+$+$+$+%+&+@+.+*+=+-+;+",
"Y.d.e.>+,+,+,+'+)+)+)+,+!+!+!+,+)+)+)+,+!+!+!+~+{+)+]+^+c.=+ +",
"P t.d./+(+_+:+_+<+<+<+[+_+[+}+}+|+|+|+[+[+[+[+_+1+2+3+4+5+6+7+",
"  !.` 8+9+0+a+b+c+c+c+c+d+9+e+a+e+e+e+e+9+9+9+d+f+g+h+i+j+k+  ",
"    e.l+m+n+o+p+q+q+q+r+s+t+u+t+r+r+r+s+t+t+t+s+q+v+n+w+x+1.  ",
"      y+z+A+B+B+C+C+C+D+E+F+D+D+F+F+F+F+F+F+F+G+z+H+I+J+      "};
